HIERARCHY
ROOT RootJoint
{
    OFFSET   0.000000   0.000000   0.000000
    CHANNELS 6 Xposition Yposition Zposition Xrotation Yrotation Zrotation
    JOINT pelvis_lowerback
    {
        OFFSET   0.000000   0.093605   0.000000
        CHANNELS 3 Xrotation Yrotation Zrotation
        JOINT lowerback_torso
        {
            OFFSET   0.000000   0.100000   0.000000
            CHANNELS 3 Xrotation Yrotation Zrotation
            JOINT torso_head
            {
                OFFSET   0.000000   0.282350   0.000000
                CHANNELS 3 Xrotation Yrotation Zrotation
                End Site
                {
                    OFFSET   0.000000   0.192650   0.000000
                }
            }
            JOINT rTorso_Clavicle
            {
                OFFSET  -0.001000   0.157500   0.000000
                CHANNELS 3 Xrotation Yrotation Zrotation
                JOINT rShoulder
                {
                    OFFSET  -0.117647   0.000000   0.000000
                    CHANNELS 3 Xrotation Yrotation Zrotation
                    JOINT rElbow
                    {
                        OFFSET  -0.245000   0.000000   0.000000
                        CHANNELS 3 Xrotation Yrotation Zrotation
                        JOINT rWrist
                        {
                            OFFSET  -0.240000   0.000000   0.000000
                            CHANNELS 3 Xrotation Yrotation Zrotation
                            End Site
                            {
                                OFFSET  -0.116353  -0.002500   0.000000
                            }
                        }
                    }
                }
            }
            JOINT lTorso_Clavicle
            {
                OFFSET   0.001000   0.157500   0.000000
                CHANNELS 3 Xrotation Yrotation Zrotation
                JOINT lShoulder
                {
                    OFFSET   0.117647   0.000000   0.000000
                    CHANNELS 3 Xrotation Yrotation Zrotation
                    JOINT lElbow
                    {
                        OFFSET   0.245000   0.000000   0.000000
                        CHANNELS 3 Xrotation Yrotation Zrotation
                        JOINT lWrist
                        {
                            OFFSET   0.240000   0.000000   0.000000
                            CHANNELS 3 Xrotation Yrotation Zrotation
                            End Site
                            {
                                OFFSET   0.116353  -0.002500   0.000000
                            }
                        }
                    }
                }
            }
        }
    }
    JOINT rHip
    {
        OFFSET  -0.100000  -0.051395   0.000000
        CHANNELS 3 Xrotation Yrotation Zrotation
        JOINT rKnee
        {
            OFFSET   0.000000  -0.410000   0.000000
            CHANNELS 3 Xrotation Yrotation Zrotation
            JOINT rAnkle
            {
                OFFSET   0.000000  -0.390000   0.000000
                CHANNELS 3 Xrotation Yrotation Zrotation
                JOINT rToeJoint
                {
                    OFFSET   0.000000  -0.050000   0.130000
                    CHANNELS 3 Xrotation Yrotation Zrotation
                    End Site
                    {
                        OFFSET  -0.010000   0.002000   0.060000
                    }
                }
            }
        }
    }
    JOINT lHip
    {
        OFFSET   0.100000  -0.051395   0.000000
        CHANNELS 3 Xrotation Yrotation Zrotation
        JOINT lKnee
        {
            OFFSET   0.000000  -0.410000   0.000000
            CHANNELS 3 Xrotation Yrotation Zrotation
            JOINT lAnkle
            {
                OFFSET   0.000000  -0.390000   0.000000
                CHANNELS 3 Xrotation Yrotation Zrotation
                JOINT lToeJoint
                {
                    OFFSET   0.000000  -0.050000   0.130000
                    CHANNELS 3 Xrotation Yrotation Zrotation
                    End Site
                    {
                        OFFSET   0.010000   0.002000   0.060000
                    }
                }
            }
        }
    }
}
MOTION
Frames: 8
Frame Time:   0.008333
 -2.272611   0.894893   3.837129 -17.251119 -48.465590 -15.478919   9.722203   0.146692  -2.344170   2.707605  -1.670781   0.084106   0.217017  -0.990023   1.120634  -1.516817 -11.992624  -2.505590 -10.162562 -13.672256  54.521120 179.986285  68.495611 -179.988348  -0.967037   6.737716 -11.511752   0.986776  10.452359   2.969928 -10.659233   4.043098 -59.802135 179.996475 -64.936984 -179.995251  -0.901678  -6.490976  15.914701   3.555484  -5.480452 -12.823229  22.099715  -0.000072  -0.000756  -4.172760  -7.358811   4.268974 -12.428743  -0.000039  -0.000568   9.807339   0.947570  15.390735  14.970771  -0.000263  -0.001155 -15.495202   0.062971   0.498969   2.101825  -0.000072  -0.000259
 -2.273453   0.894423   3.837689 -17.704264 -48.600303 -15.872789   9.554239   0.060626  -2.374808   2.915634  -1.712885   0.098076   0.371462  -1.031663   1.168780  -1.468768 -12.129503  -2.351463 -10.096132 -13.784972  54.666964 179.983971  68.836097 -179.986009  -1.039876   6.743989 -11.476716   1.024995  10.521344   2.895957 -10.817867   4.090453 -59.883196 179.996446 -65.375709 -179.995900  -0.983480  -6.424331  15.883634   3.716013  -5.344712 -12.809840  22.386627  -0.000110  -0.000848  -4.392480  -7.262420   4.210013 -12.407977  -0.000023  -0.000453  10.110735   0.905429  15.383274  15.265793  -0.000334  -0.001593 -15.866538   0.060694   0.521254   2.117324  -0.000058  -0.000243
 -2.274274   0.893934   3.838181 -18.132128 -48.728671 -16.245128   9.404822  -0.026258  -2.401217   3.110822  -1.757382   0.110758   0.518099  -1.070981   1.213964  -1.431455 -12.268379  -2.215673 -10.043497 -13.901499  54.792086 179.982318  69.162841 -179.984234  -1.115296   6.712283 -11.521680   1.054047  10.593083   2.830834 -10.972438   4.143223 -59.952660 179.996544 -65.789342 -179.996464  -1.063635  -6.347165  15.908983   3.861584  -5.210991 -12.796600  22.669209  -0.000140  -0.000897  -4.624344  -7.171214   4.158134 -12.365847  -0.000006  -0.000358  10.386299   0.865646  15.377518  15.560355  -0.000396  -0.001903 -16.210037   0.059717   0.539567   2.126151  -0.000047  -0.000213
 -2.275082   0.893449   3.838621 -18.536986 -48.853078 -16.600973   9.267698  -0.110963  -2.421414   3.296360  -1.802370   0.124143   0.656396  -1.107619   1.256468  -1.397168 -12.403270  -2.093192  -9.995733 -14.014098  54.904278 179.981408  69.469486 -179.983164  -1.189675   6.669739 -11.595917   1.080681  10.662247   2.771010 -11.117139   4.194659 -60.015831 179.996808 -66.175951 -179.996852  -1.141129  -6.269904  15.951570   3.996919  -5.081588 -12.780406  22.938305  -0.000165  -0.000916  -4.854863  -7.082211   4.113244 -12.314520   0.000007  -0.000282  10.645877   0.827361  15.374666  15.840082  -0.000444  -0.002098 -16.530665   0.058755   0.556971   2.135057  -0.000038  -0.000189
 -2.275873   0.892977   3.839016 -18.917795 -48.973776 -16.939608   9.140786  -0.192953  -2.435893   3.471802  -1.847008   0.138940   0.786231  -1.141754   1.296614  -1.364751 -12.532029  -1.980756  -9.951135 -14.121003  55.006879 179.981103  69.756267 -179.982695  -1.261673   6.625240 -11.679016   1.105871  10.727280   2.715011 -11.251835   4.243251 -60.074570 179.997179 -66.536836 -179.997101  -1.215607  -6.195276  15.996125   4.121831  -4.957031 -12.761217  23.192564  -0.000184  -0.000912  -5.079646  -6.995663   4.074172 -12.258517   0.000014  -0.000220  10.891009   0.790084  15.374338  16.102030  -0.000477  -0.002200 -16.831065   0.057621   0.573965   2.143582  -0.000031  -0.000169
 -2.276646   0.892520   3.839373 -19.274588 -49.090448 -17.260482   9.023219  -0.271918  -2.445327   3.637225  -1.890780   0.155259   0.907871  -1.173564   1.334560  -1.334042 -12.653780  -1.876605  -9.909250 -14.221740  55.101615 179.981267  70.024232 -179.982703  -1.331014   6.581252 -11.764080   1.129664  10.787663   2.662335 -11.377249   4.288597 -60.129618 179.997606 -66.873591 -179.997256  -1.287043  -6.123953  16.038177   4.236613  -4.837604 -12.739695  23.432035  -0.000197  -0.000890  -5.296963  -6.912068   4.040085 -12.199959   0.000017  -0.000171  11.122230   0.753710  15.375905  16.345982  -0.000496  -0.002229 -17.112841   0.056331   0.590579   2.151543  -0.000025  -0.000151
 -2.277397   0.892082   3.839696 -19.607957 -49.202724 -17.563429   8.914417  -0.347597  -2.450311   3.793050  -1.933277   0.173016   1.021751  -1.203208   1.370421  -1.305035 -12.768269  -1.779723  -9.869909 -14.316283  55.189507 179.981781  70.274537 -179.983075  -1.397699   6.538504 -11.848475   1.152023  10.843393   2.612793 -11.494132   4.330688 -60.181337 179.998048 -67.187770 -179.997357  -1.355479  -6.056137  16.076597   4.341843  -4.723493 -12.716562  23.657205  -0.000205  -0.000855  -5.506031  -6.831835   4.010337 -12.140168   0.000018  -0.000132  11.339989   0.718254  15.378805  16.572590  -0.000503  -0.002203 -17.377240   0.054936   0.606753   2.158909  -0.000021  -0.000135
 -2.277912   0.891639   3.839903 -19.726795 -49.345779 -17.701310   8.726755  -0.426386  -2.456448   3.903992  -1.986777   0.209210   1.112846  -1.230952   1.406709  -1.307162 -12.925773  -1.710719 -10.019339 -14.473169  55.254197 179.980601  70.543089 -179.981738  -1.484950   6.457294 -11.786597   1.158204  10.956710   2.578364 -11.678727   4.440700 -60.275241 179.997679 -67.439052 -179.998308  -1.436150  -5.939014  16.020786   4.260422  -4.599661 -12.700049  23.920771  -0.000205  -0.000826  -5.698436  -6.752462   3.988376 -12.097680   0.000015  -0.000098  11.344204   0.671841  15.382066  16.873424  -0.000531  -0.002267 -17.627462   0.043342   0.603157   2.170867  -0.000016  -0.000130
